# xmcd
#
# Track frame offsets:
#	150
#	13700
#	26232
#
# Disc length: 555 seconds
#
# Revision: 0
# Processed by: cddbd v1.5.1PL0 Copyright (c) Steve Scherf et al.
# Submitted via: dBpowerAMP V4.0
#
DISCID=1d022903
DTITLE=The Stands - When This River Rolls Over You
DYEAR=2004
DGENRE=AlternRock
TTITLE0=When This River Rolls Over You
TTITLE1=She Speaks Of These Things
TTITLE2=In So Many Ways
EXTD=
EXTT0=
EXTT1=
EXTT2=
PLAYORDER=
